<svg xmlns="http://www.w3.org/2000/svg" width="30" height="30" viewBox="0 0 30 30" fill="none">
<path fill-rule="evenodd" clip-rule="evenodd" d="M20.4263 13.3646L14.4887 19.2971C14.3125 19.4734 14.075 19.5721 13.8263 19.5721C13.5775 19.5721 13.3387 19.4734 13.1625 19.2971L10.1988 16.3309C9.8325 15.9646 9.8325 15.3709 10.1988 15.0046C10.5663 14.6384 11.16 14.6409 11.525 15.0046L13.8263 17.3084L19.1 12.0383C19.4662 11.6721 20.06 11.6733 20.4263 12.0383C20.7925 12.4046 20.7925 12.9984 20.4263 13.3646ZM15.3125 3.48083C6.315 3.48083 3.125 6.67084 3.125 15.6684C3.125 24.6659 6.315 27.8559 15.3125 27.8559C24.31 27.8559 27.5 24.6659 27.5 15.6684C27.5 6.67084 24.31 3.48083 15.3125 3.48083Z" fill="#76D13E"/>
</svg>