<svg xmlns="http://www.w3.org/2000/svg" width="30" height="30" viewBox="0 0 30 30" fill="none">
<path fill-rule="evenodd" clip-rule="evenodd" d="M18.9762 19.3221C18.7937 19.5046 18.5538 19.5971 18.3138 19.5971C18.0725 19.5971 17.8337 19.5046 17.65 19.3221L15.3088 16.9809L12.975 19.3146C12.7925 19.4984 12.5525 19.5896 12.3125 19.5896C12.0738 19.5896 11.8325 19.4984 11.65 19.3146C11.2837 18.9484 11.2837 18.3559 11.65 17.9896L13.9825 15.6546L11.65 13.3221C11.2837 12.9559 11.2837 12.3633 11.65 11.9971C12.0162 11.6308 12.6088 11.6308 12.975 11.9971L15.3075 14.3296L17.6375 11.9996C18.0037 11.6333 18.5963 11.6333 18.9625 11.9996C19.3288 12.3658 19.3288 12.9584 18.9625 13.3246L16.6337 15.6546L18.9762 17.9959C19.3425 18.3621 19.3425 18.9559 18.9762 19.3221ZM15.3125 3.48083C6.315 3.48083 3.125 6.67084 3.125 15.6684C3.125 24.6659 6.315 27.8559 15.3125 27.8559C24.3113 27.8559 27.5 24.6659 27.5 15.6684C27.5 6.67084 24.3113 3.48083 15.3125 3.48083Z" fill="#FE0101"/>
</svg>