<svg xmlns="http://www.w3.org/2000/svg" width="39" height="48" viewBox="0 0 39 48" >
<g clip-path="url(#clip0_3188_4363)">
<path d="M6.33326 30.9775C4.80434 30.9775 3.50182 30.9977 2.19931 30.9717C0.843685 30.9428 0.0526721 30.238 0.00236037 29.0739C-0.0507465 27.8722 0.796168 26.9883 2.15179 26.9478C3.78133 26.9016 5.41367 26.9912 7.04042 26.893C7.45689 26.867 8.01591 26.4539 8.21156 26.0582C8.69512 25.0876 9.00537 24.0246 9.5001 22.6929C8.22274 22.6929 7.13825 22.7131 6.05654 22.6871C4.60868 22.6525 3.77295 21.9361 3.75059 20.7518C3.72823 19.5877 4.58353 18.7413 5.97548 18.672C7.18297 18.6113 8.40163 18.5853 9.60632 18.672C10.6824 18.7471 11.2331 18.4322 11.6328 17.2941C13.3937 12.2824 15.2804 7.31686 17.1195 2.33401C17.1866 2.15492 17.2537 1.97582 17.3124 1.79384C17.6478 0.756832 18.204 -0.0144266 19.3836 1.64229e-05C20.4988 0.0144595 20.9908 0.779941 21.3569 1.73896C23.1989 6.56582 25.0604 11.384 26.9108 16.208C27.5536 17.8815 28.763 18.7192 30.5388 18.7211C31.4696 18.7211 32.4059 18.6893 33.3311 18.7558C34.4072 18.8337 35.0501 19.475 35.1004 20.6073C35.1507 21.7368 34.5637 22.4936 33.5128 22.6323C32.2326 22.8027 30.9273 22.7796 29.4515 22.8489C29.9462 24.1517 30.3515 25.3649 30.8854 26.5174C31.0056 26.7774 31.559 26.9392 31.9168 26.9507C33.4513 26.997 34.9914 26.9507 36.5259 26.9767C38.1163 27.0027 39.0331 27.8029 38.9996 29.0796C38.966 30.2957 38.1051 30.9775 36.5343 31.0121C35.2793 31.0381 34.0215 31.0468 32.7665 31.0641C32.7274 31.0641 32.691 31.1017 32.5373 31.1854C32.7302 31.7372 32.9118 32.3178 33.1299 32.881C34.6588 36.8529 36.2073 40.8189 37.7278 44.7966C38.2924 46.2726 37.9402 47.3847 36.839 47.8411C35.7265 48.3033 34.7314 47.74 34.1473 46.3131C34.0578 46.0907 33.9768 45.8653 33.8901 45.6429C32.1516 41.1338 30.3879 36.6362 28.6996 32.1098C28.3782 31.2461 27.9757 30.9688 27.0897 30.9775C21.9662 31.0237 16.8428 31.0237 11.7194 30.9775C10.8278 30.9688 10.4365 31.2634 10.1234 32.1271C8.40722 36.85 6.61836 41.544 4.86024 46.2495C4.50806 47.1912 3.90711 47.9336 2.90926 47.7256C2.28036 47.5927 1.5173 47.0786 1.24618 46.5153C0.991825 45.9838 1.16233 45.1085 1.38873 44.4788C2.831 40.4723 4.34315 36.4918 5.82734 32.4998C5.98946 32.0607 6.12362 31.6101 6.33326 30.9775ZM12.2113 26.8583H26.6424C26.212 25.7 25.8989 24.6341 25.4126 23.6635C25.2113 23.262 24.6411 22.8142 24.2303 22.8027C21.0215 22.7334 17.8071 22.7449 14.5984 22.7911C14.2294 22.7969 13.676 23.08 13.5306 23.3949C13.0303 24.4665 12.6725 25.6075 12.2113 26.8554V26.8583ZM19.4227 7.6115C17.986 11.488 16.6975 14.9543 15.3586 18.5651H23.5874C22.2262 14.9861 20.9041 11.514 19.4199 7.6115H19.4227Z" />
</g>
<defs>
<clipPath >
<rect width="39" height="48"/>
</clipPath>
</defs>
</svg>