<svg viewBox="0 0 20 18" id="icon" xmlns="http://www.w3.org/2000/svg">
<path d="M14.2898 0.449951C17.5662 0.449951 19.5 2.33531 19.5 5.56266H15.4804V5.59559C13.6149 5.59559 12.1027 7.07001 12.1027 8.88881C12.1027 10.7076 13.6149 12.182 15.4804 12.182H19.5V12.4784C19.5 15.6646 17.5662 17.55 14.2898 17.55H5.71022C2.43378 17.55 0.5 15.6646 0.5 12.4784V5.5215C0.5 2.33531 2.43378 0.449951 5.71022 0.449951H14.2898ZM18.7907 6.97874C19.1824 6.97874 19.5 7.28837 19.5 7.67032V10.0744C19.4954 10.4545 19.1805 10.7615 18.7907 10.7659H15.5564C14.612 10.7783 13.7862 10.1479 13.572 9.25106C13.4647 8.69433 13.6153 8.11984 13.9834 7.68156C14.3515 7.24328 14.8995 6.98602 15.4804 6.97874H18.7907ZM15.9364 8.0902H15.624C15.4322 8.088 15.2474 8.16076 15.111 8.29224C14.9745 8.42372 14.8978 8.60297 14.8978 8.79001C14.8978 9.1824 15.2216 9.50177 15.624 9.50628H15.9364C16.3375 9.50628 16.6627 9.18928 16.6627 8.79824C16.6627 8.4072 16.3375 8.0902 15.9364 8.0902ZM10.3631 4.14658H5.00089C4.60308 4.14655 4.27929 4.45857 4.27467 4.84639C4.27467 5.23878 4.59844 5.55815 5.00089 5.56266H10.3631C10.7642 5.56266 11.0893 5.24566 11.0893 4.85462C11.0893 4.46358 10.7642 4.14658 10.3631 4.14658Z"/>
</svg>
