<svg xmlns="http://www.w3.org/2000/svg" width="12" height="15" viewBox="0 0 12 15" fill="none">
  <g clip-path="url(#clip0_3212_8688)">
    <path d="M7.68412 0V2.60421C7.68412 3.42984 8.81836 4.54367 9.5964 4.54367H11.9994V10.3986C11.9994 11.0174 11.2364 11.7853 10.6481 11.8204H4.33389C3.60038 11.7088 3.00326 10.9997 2.98077 10.215C2.97655 10.066 3.01873 9.94654 3.0192 9.80934C3.02998 7.21056 3.02998 4.6098 3.0192 2.01151C3.01685 1.43116 2.95967 1.11581 3.33416 0.610462C3.49211 0.397269 4.01143 0 4.26311 0H7.68365L7.68412 0Z" fill="black"/>
    <path d="M1.43233 3.15102C1.64887 3.13079 1.83588 3.11598 1.89353 3.38247C1.89587 5.53711 1.89681 7.69174 1.89728 9.84686C1.89728 9.97221 1.85697 10.0828 1.85791 10.215C1.86916 11.6161 2.96262 12.9016 4.29747 13.0048C5.71714 13.1148 7.31633 12.8671 8.72101 13.0018C8.86396 13.0156 8.96332 13.0398 8.98442 13.2051C9.10159 14.1196 8.35027 14.9679 7.49256 15.0005C7.35945 15.0054 7.25634 14.9615 7.14244 14.9605C5.4003 14.9452 3.65442 14.9507 1.91181 14.9605C1.78104 14.961 1.66809 15.0064 1.52654 15.001C0.744756 14.9719 0.0609304 14.2859 0 13.4677L0.00515565 4.56639C0.111549 3.81281 0.711479 3.21863 1.43233 3.15102Z" fill="black"/>
    <path d="M11.4047 3.36183H9.94893C9.84957 3.36183 9.56366 3.29027 9.45633 3.25227C9.24635 3.17825 9.07716 3.04796 8.97076 2.8402C8.92483 2.75087 8.80859 2.39259 8.80859 2.3087V0.591309L11.4047 3.36183Z" fill="black"/>
  </g>
  <defs>
    <clipPath id="clip0_3212_8688">
      <rect width="12" height="15" fill="white"/>
    </clipPath>
  </defs>
</svg>