<svg xmlns="http://www.w3.org/2000/svg" width="15" height="15" viewBox="0 0 15 15"  id="icon">
<path d="M1.51191 7.91755C1.61859 7.73492 1.63115 7.48416 1.63841 7.12225C1.64037 7.02786 1.64205 6.93878 1.64763 6.88376C1.81435 5.24177 2.73368 3.67851 4.10709 2.70253C5.21772 1.91309 6.58945 1.5361 7.969 1.64137C9.02908 1.72208 10.0291 2.08427 10.8641 2.67935H10.2171C10.1115 2.67935 10.0286 2.7204 9.90373 2.80083C9.75852 2.89438 9.72026 2.94017 9.70183 2.96223C9.52422 3.17419 9.46808 3.45874 9.55102 3.7232C9.63676 3.99602 9.85263 4.20351 10.1285 4.27835L10.1847 4.29371L10.2428 4.29063C10.6393 4.26941 11.0747 4.28589 11.4958 4.3018C12.0085 4.32107 12.5386 4.34118 13.0365 4.29706C13.4241 4.26271 13.721 3.99965 13.7925 3.62713L13.7992 3.59278L13.7919 0.640537L13.7768 0.590271C13.6794 0.263268 13.3937 0.0342815 13.0491 0.00719411C12.7142 -0.0190555 12.4179 0.150729 12.2747 0.450366C12.2738 0.452321 12.1806 0.652824 12.1806 0.771227V1.64417C11.7315 1.28393 11.2411 0.975918 10.7153 0.724312C9.92552 0.346206 9.09443 0.114147 8.24436 0.0340023C7.20941 -0.0637358 6.18424 0.0510366 5.19705 0.374689C4.24449 0.686893 3.37375 1.17726 2.60885 1.83238C1.85456 2.47857 1.24521 3.24958 0.798115 4.12364C0.332865 5.03261 0.065611 6.01222 0.00417335 7.03428C-0.00252893 7.14682 0.000263687 7.25433 0.00277704 7.35849C0.00501114 7.44283 0.00696597 7.52269 0.00361483 7.59753L0.000822211 7.6612L0.019812 7.72208C0.119509 8.03987 0.399329 8.26969 0.732768 8.30739C0.764325 8.31102 0.795602 8.3127 0.8266 8.3127C1.10949 8.3127 1.36641 8.16693 1.51163 7.91783L1.51191 7.91755Z" />
<path d="M14.6973 6.8548C14.5725 6.74952 14.3508 6.63977 14.0014 6.71349C13.6655 6.78442 13.5186 6.9961 13.4546 7.16141C13.3896 7.32924 13.3876 7.50657 13.3862 7.64899C13.3857 7.70149 13.3851 7.75091 13.3817 7.79085C13.2284 9.55348 12.5171 10.9752 11.2674 12.0162C9.20091 13.7381 6.23654 13.8174 4.14012 12.3245H4.78494C4.99997 12.3245 5.2703 12.0695 5.27253 12.067C5.46522 11.8587 5.53448 11.5728 5.45796 11.3019C5.37837 11.0207 5.16083 10.8054 4.87626 10.7261L4.81873 10.7101L4.75925 10.7132C4.3627 10.7344 3.92733 10.718 3.5062 10.702C2.99347 10.6825 2.46343 10.6627 1.96551 10.7068C1.57789 10.7411 1.28104 11.0042 1.20955 11.3767L1.20312 11.4105V14.2868L1.20676 14.3119C1.23496 14.5127 1.35281 14.7895 1.75299 14.9682L1.82365 14.9997H2.20344L2.27549 14.9665C2.49499 14.8657 2.82145 14.587 2.82145 14.2323V13.3586C3.78099 14.1265 4.92764 14.656 6.12205 14.8735L7.03104 14.9997H8.02298L8.09978 14.9665C9.86472 14.8607 11.5506 14.0695 12.8542 12.7344C14.1684 11.3882 14.9302 9.65904 14.9992 7.86541C15.0124 7.52444 14.9897 7.10138 14.6971 6.8548H14.6973Z"/>
</svg>