<svg xmlns="http://www.w3.org/2000/svg" width="24" height="24" viewBox="0 0 24 24" id="icon">
  <path fill-rule="evenodd" clip-rule="evenodd" d="M12.0028 4.00098C16.1388 4.00398 19.8527 6.90298 21.9387 11.757C22.0207 11.946 22.0207 12.16 21.9387 12.349C19.8537 17.204 16.1388 20.103 12.0028 20.106H11.9967C7.86075 20.103 4.14675 17.204 2.06075 12.349C1.97975 12.16 1.97975 11.946 2.06075 11.757C4.14675 6.90298 7.86175 4.00398 11.9967 4.00098H12.0028ZM11.9998 5.50098C8.56375 5.50198 5.42975 7.94498 3.56975 12.053C5.42975 16.162 8.56275 18.605 11.9998 18.606C15.4368 18.605 18.5697 16.162 20.4297 12.053C18.5697 7.94498 15.4368 5.50198 11.9998 5.50098ZM11.9995 8.14178C14.1565 8.14178 15.9115 9.89678 15.9115 12.0538C15.9115 14.2098 14.1565 15.9638 11.9995 15.9638C9.84245 15.9638 8.08845 14.2098 8.08845 12.0538C8.08845 9.89678 9.84245 8.14178 11.9995 8.14178ZM11.9995 9.64178C10.6695 9.64178 9.58845 10.7238 9.58845 12.0538C9.58845 13.3828 10.6695 14.4638 11.9995 14.4638C13.3295 14.4638 14.4115 13.3828 14.4115 12.0538C14.4115 10.7238 13.3295 9.64178 11.9995 9.64178Z" />
</svg>